<?xml version="1.0" standalone="no"?><!DOCTYPE svg PUBLIC "-//W3C//DTD SVG 1.1//EN" "http://www.w3.org/Graphics/SVG/1.1/DTD/svg11.dtd"><svg t="1548842379103" class="icon" style="" viewBox="0 0 1024 1024" version="1.1" xmlns="http://www.w3.org/2000/svg" p-id="2928" xmlns:xlink="http://www.w3.org/1999/xlink" width="32" height="32"><defs><style type="text/css"></style></defs><path d="M901.1776 582.976h-0.32l-3.136-2.944v-85.12H473.1456v-63.04h424.576V344.064l125.632 115.072v0.32l-122.176 123.52zM676.2816 60.416H154.4896l200.064 95.36c26.688 12.672 48.256 43.776 48.256 69.504l3.2 565.824a32.64 32.64 0 0 1 7.104-0.832h264V590.976h62.784v229.44c0 16.768-14.08 30.336-31.488 30.336H413.1136a35.072 35.072 0 0 1-6.848-0.768l0.96 163.968c0 8.576-7.232 11.904-16.128 7.296L39.1616 833.408c-21.632-11.008-39.104-37.184-39.04-58.24L1.2736 38.464A28.352 28.352 0 0 1 1.5936 20.864C3.1296 9.664 10.4256 2.816 20.6016 1.856A32 32 0 0 1 31.4176 0h676.224c17.344 0 31.424 13.568 31.424 30.208a31.04 31.04 0 0 1-0.64 6.08c0.384 1.984 0.64 4.032 0.64 6.144v289.536h-62.784V60.416z m0 0" p-id="2929" fill="#ffffff"></path></svg>